PathFileType	4	(X/Y/Z)	C:/Users/beibeiliu/ov580/test_trc/User1\sequence.30_training_dense_left.trc
DataRate	CameraRate	NumFrames	NumMarkers	Units	OrigDataRate	OrigDataStartFrame	OrigNumFrames
120	120	11	19	mm	120	142	227
Frame#	Time	ThumbCMC			ThumbMCP			ThumbIP			ThumbTip			IndexMCP			IndexPIP			IndexTip			MiddleMCP			MiddlePIP			MiddleTip			RingMCP			RingPIP			RingTip			PinkyMCP			PinkyPIP			PinkyTip			BackHand1			BackHand2			BackHand3	
		X0	Y0	Z0	X1	Y1	Z1	X2	Y2	Z2	X3	Y3	Z3	X4	Y4	Z4	X5	Y5	Z5	X6	Y6	Z6	X7	Y7	Z7	X8	Y8	Z8	X9	Y9	Z9	X10	Y10	Z10	X11	Y11	Z11	X12	Y12	Z12	X13	Y13	Z13	X14	Y14	Z14	X15	Y15	Z15	X16	Y16	Z16	X17	Y17	Z17	X18	Y18	Z18	
141	1.175	-141.563	21.583	52.774	-152.743	38.1203	32.2465	-168.095	48.1518	11.0113	-175.297	58.5222	-3.12817	-132.736	-2.79527	-28.343	-130.856	-11.4365	-53.2103	-127.788	-19.6644	-82.2358	-110.695	-25.3794	-31.9856	-112.641	-30.4168	-65.4083	-106.67	-35.2517	-92.7529	-83.5885	-30.2579	-29.7308	-77.6054	-31.1735	-55.8222	-68.5354	-27.2133	-79.6899	-57.7063	-27.482	-11.6896	-49.1903	-26.0822	-27.2026	-41.1837	-21.244	-56.5147	-96.2038	-28.7946	23.5939	-99.6287	-32.8051	57.7381	-126.445	-12.8992	38.6012	
142	1.18333	-141.332	23.6804	55.5835	-152.606	39.6969	33.3109	-165.382	50.0394	10.3653	-174.307	60.9258	-4.85677	-133.109	-3.50799	-26.6504	-130.614	-13.8657	-52.5721	-127.93	-21.7954	-76.2024	-114.827	-23.8141	-33.9057	-114.072	-33.2055	-59.4692	-111.302	-43.3748	-90.5599	-89.0321	-29.1413	-26.4825	-82.5528	-35.4877	-53.5845	-80.5661	-34.4905	-83.6228	-58.0112	-29.3481	-10.6516	-52.7108	-28.882	-28.1699	-42.9103	-33.9412	-51.0989	-97.4513	-27.983	25.7287	-98.1581	-33.7173	57.6505	-125.923	-13.4117	40.0392	
143	1.19167	-139.834	23.1978	53.8313	-149.371	40.4248	32.4226	-163.05	51.1058	11.3698	-173.123	62.5385	-4.57518	-133.164	-2.13802	-26.7147	-133.697	-12.5294	-50.1874	-132.687	-21.7929	-75.3827	-114.29	-26.8944	-33.1729	-117.249	-35.2877	-59.1483	-121.129	-44.8458	-87.3322	-90.2174	-31.2647	-24.1787	-87.5495	-40.6133	-54.0162	-86.4297	-43.1506	-75.0597	-60.6521	-29.819	-5.49462	-53.8646	-33.0444	-26.7046	-44.2783	-41.7098	-51.2966	-99.7795	-28.3234	24.0229	-97.7626	-33.0332	58.6746	-124.506	-11.8231	39.7721	
144	1.2	-137.999	24.5329	54.4667	-152.607	41.8981	32.3739	-163.121	52.2864	10.153	-176.193	65.3011	-4.50758	-134.378	-2.05779	-25.1681	-138.359	-10.3917	-51.0918	-139.302	-22.3321	-76.6622	-116.791	-25.8755	-29.6451	-121.118	-34.3249	-54.0162	-127.806	-46.0494	-84.3585	-94.1054	-33.0932	-27.4925	-93.6272	-41.4455	-47.6537	-92.1621	-51.195	-76.0075	-64.5771	-29.6745	-6.99137	-52.7222	-37.8729	-26.3773	-48.4192	-48.0375	-43.817	-100.046	-27.433	25.073	-100.24	-32.7576	59.1603	-127.229	-9.96696	37.0039	
145	1.20833	-140.252	25.3885	50.7531	-150.877	42.5336	32.0938	-162.506	53.2457	8.0739	-173.425	66.0412	-5.35567	-135.691	-3.33179	-28.3482	-138.972	-12.1671	-48.5316	-140.871	-22.5167	-71.2874	-117.53	-26.3055	-28.3618	-123.074	-36.6329	-52.7709	-132.883	-50.3036	-82.1149	-96.7092	-32.4889	-21.7367	-96.3096	-46.0474	-47.6993	-97.5832	-54.4928	-74.2014	-62.052	-37.2081	-7.97777	-53.363	-42.9937	-21.5993	-48.0233	-55.9417	-40.9191	-97.7953	-28.4955	26.211	-100.834	-34.2125	59.2033	-128.267	-9.07646	39.63	
146	1.21667	-134.796	23.9986	51.7008	-146.929	42.4003	30.9494	-163.119	55.229	12.8693	-169.511	65.5628	-5.08538	-134.717	-4.4809	-26.39	-141.498	-10.5693	-46.8995	-145.032	-26.9165	-73.5783	-122.069	-25.5973	-27.3493	-126.206	-37.5707	-51.8337	-134.038	-50.7586	-77.2313	-98.9026	-36.937	-23.4285	-100.948	-50.4596	-48.1701	-100.215	-57.9427	-67.3288	-63.4371	-37.5351	-5.97736	-57.7823	-45.709	-21.0915	-53.3902	-61.5773	-40.2868	-99.2487	-28.2378	26.7531	-102.307	-33.8587	57.8912	-128.239	-12.6699	39.6817	
147	1.225	-136.095	25.1739	50.0567	-149.701	44.5181	32.4775	-158.617	52.6534	8.9888	-172.865	67.2713	-4.46893	-138.038	-2.16908	-24.8819	-142.294	-12.4294	-47.0851	-145.904	-25.5627	-68.859	-120.691	-28.6871	-28.5667	-128.738	-37.4743	-49.9167	-136.439	-51.4797	-73.9994	-97.8042	-38.4307	-20.5181	-104.194	-49.8208	-45.9113	-104.326	-63.3429	-68.567	-64.3536	-41.3308	-4.52806	-57.8811	-49.8965	-22.6847	-53.5426	-66.6561	-38.2567	-98.8667	-31.0505	24.0209	-104.455	-31.5454	61.7916	-130.346	-7.7443	40.0255	
148	1.23333	-138.429	25.4974	52.4636	-149.956	42.9564	29.6762	-160.123	52.6819	8.99162	-173.189	68.1105	-4.12145	-136.254	-4.1306	-23.9638	-141.072	-15.7048	-46.4285	-145.746	-30.947	-69.333	-124.536	-26.9163	-27.4686	-131.72	-38.729	-51.0722	-137.558	-56.636	-74.3107	-98.6031	-40.9019	-21.591	-105.287	-51.719	-44.2728	-109.771	-62.6643	-68.8902	-67.0226	-40.9906	-5.32181	-60.2616	-51.8249	-22.3128	-54.9182	-69.6264	-37.5809	-100.51	-30.9941	23.6065	-107.657	-31.3766	62.068	-130.48	-10.1641	38.236	
149	1.24167	-136.838	24.436	50.5028	-150.785	45.3472	32.4389	-163.258	54.8785	6.27708	-173.586	67.1322	-8.5194	-138.556	-6.28355	-28.8113	-141.444	-16.6211	-46.4929	-149.862	-29.8226	-72.3214	-125.364	-26.5328	-26.813	-132.121	-40.8844	-49.1115	-143.805	-57.6355	-76.3525	-103.609	-38.8733	-22.3219	-107.02	-54.0611	-45.3242	-108.29	-65.3415	-64.8125	-69.3239	-40.2815	-4.77805	-60.6859	-52.0243	-18.0077	-55.4816	-69.7014	-36.8269	-101.622	-32.8824	23.9968	-104.615	-33.7463	59.6822	-133.527	-9.03196	38.0579	
150	1.25	-137.643	23.05	47.1327	-150.371	44.0102	26.9332	-161.846	54.7308	9.32458	-173.028	68.2113	-4.86283	-137.993	-5.82494	-26.4247	-147.58	-15.5431	-49.9358	-148.524	-31.289	-70.447	-124.93	-31.5853	-29.4067	-133.138	-44.7431	-53.3689	-141.984	-56.5492	-73.2104	-106.627	-40.3584	-24.4871	-108.441	-55.1329	-45.864	-110.733	-66.2996	-67.3903	-68.5412	-44.4626	-5.47718	-60.7326	-53.3931	-22.1387	-57.0217	-72.2831	-38.0308	-104.329	-31.3245	26.8278	-106.802	-32.7369	58.1588	-134.387	-10.8899	37.6731	
151	1.25833	-142.226	24.6469	46.9353	-147.753	40.6836	26.634	-163.706	53.432	4.88319	-170.641	65.0143	-9.42727	-138.931	-6.46985	-25.479	-145.774	-16.7835	-48.6219	-149.35	-31.7141	-71.8395	-124.041	-31.1818	-27.2034	-133.888	-44.512	-50.9636	-143.62	-59.0488	-75.1372	-104.539	-43.6917	-24.4464	-108.337	-55.6278	-46.3806	-109.628	-66.4311	-65.2227	-70.0693	-43.2819	-8.87034	-59.8124	-53.0238	-21.4275	-55.5844	-67.405	-36.4966	-104.136	-36.1708	23.5326	-107.081	-36.0031	57.8833	-131.611	-14.2004	34.0769	
